<?xml version="1.0" standalone="yes"?>
<svg xmlns="http://www.w3.org/2000/svg" width="980" height="778">
<path style="fill:#181818; stroke:none;" d="M0 0L0 233L5 233L5 235L0 235L0 237L4 237L4 238L0 239C2.63065 312.109 0 385.83 0 459L0 514C0 519.06 -2.01419 529.492 2 533L2 534L0 538L1 538L3 536L4 540L0 540L0 542L5 542L5 544L0 544L0 778L7 778L7 547L8 547C13.5087 570.138 9 599.204 9 623L9 778L12 778L12 552L13 552C18.3681 574.548 14 602.814 14 626L14 778L19 778L19 557L20 557L20 778L21 778L21 558C25.391 562.3 24 569.234 24 575L24 615L24 778L252 778L252 561L254 561L254 778L260 778L260 567L261 567L261 778L267 778L267 574L268 574C272.876 594.48 269 619.948 269 641L269 778L275 778L275 581L276 581L276 778L277 778L277 583L278 583C282.665 602.594 279 626.863 279 647L279 778L282 778L282 587L283 587C287.595 606.298 284 630.167 284 650L284 778L290 778L290 594L291 594C295.454 612.707 292 635.777 292 655L292 778L293 778L293 597L294 597L294 778L297 778L297 600C304.757 610.784 300 635.931 300 649L300 778L304 778L304 607L305 607L305 778L306 778L306 608L307 608L307 778L309 778L309 611L310 611L310 778L312 778L312 614C319.499 621.343 315 646.769 315 657L315 778L316 778L316 617L317 617L317 778L321 778L321 621L322 621L322 778L328 778L328 628L329 628L330 678L330 778L336 778L336 635L337 635L338 683L338 778L343 778L343 641C349.609 650.188 346 668.964 346 680L346 778L352 778L352 648L353 648L353 778L355 778L355 652L356 652L356 778L358 778L358 654C364.138 662.533 361 678.789 361 689L361 778L367 778L367 662L368 662L368 778L369 778L369 664L370 664L371 703L371 778L374 778L374 668L375 668L376 706L376 778L377 778L377 671L378 671L378 778L382 778L382 675L383 675L383 778L389 778L389 682L391 682L391 778L396 778L396 688C401.405 693.725 399 705.542 399 713L399 778L404 778L404 695C409.104 700.447 407 710.971 407 718L407 778L413 778L413 702L414 702L414 778L420 778L420 709L421 709C426.017 730.073 422 756.335 422 778L428 778L428 716L429 716L429 778L430 778L430 718L431 718C435.384 736.414 432 759.079 432 778L435 778L435 722L436 722C440.103 739.232 437 760.299 437 778L443 778L443 729L444 729L445 778L446 778L446 732L447 732L447 778L450 778L450 735C457.076 744.838 453 766.133 453 778L457 778L457 742L458 742L458 778L459 778L459 743L460 743L460 778L465 778L465 749C470.971 754.847 468 770.046 468 778L469 778L469 752L470 752L470 778L474 778L474 756L475 756L475 778L478 778L478 760L479 760L479 778L481 778L481 763L483 763L483 778L488 778L488 769L490 769L490 778L494 778L494 773L495 773L495 778L496 778L496 773L499 778L524 778L525 774L526 774L526 778L528 778L528 773L529 773L529 778L534 778L537 767L537 778L539 778L540 763L541 763L541 778L795 778L795 762L542 762L543 757L798 757L798 756L544 756C549.348 750.446 556.801 752 564 752L610 752L800 752L800 750L547 750L547 748L801 748L801 724C800.996 721.327 801.629 716.946 799.258 715.028C793.725 710.552 774.058 714 767 714L678 714L678 608C678 597.439 674.284 577.061 689 575L688 570L692 570L694 565L694 570L800 570L800 559L896 559L896 554L897 554L898 559L902 559L901 564L902 564L902 561L903 561L907 570L911 570L910 575L911 575L911 572L912 572C913.734 577.257 920.234 579.603 921.683 585.089C926.377 602.87 922 627.566 922 646L922 778L925 778L925 585C936.385 590.176 931 620.831 931 632L931 778L956 778L956 650C956 630.167 952.406 606.298 957 587L958 587L958 778L960 778L960 585L962 585L962 778L966 778L966 630C966 614.476 960.376 586.967 973 576L973 778L980 778L980 573L975 573L975 571L980 571L980 569L976 569L976 568L980 567L980 542L980 541L974 535L980 535L980 531L971 532L971 525L980 525L980 501L951 501L949 506L950 501C946.059 500.358 944.807 498.873 944 495L940 495L941 489L936 490L935 483L980 483L980 477L943 477L927 479L926 471L980 471L980 447L906 447L904 452L905 447C901.059 446.358 899.807 444.873 899 441L895 441L896 435L891 436L890 429L980 429L980 423L910 423C902.134 423 888.586 420.387 882 425L881 417L980 417L980 393L861 393L859 398L860 393C856.059 392.358 854.807 390.873 854 387L850 387L851 381L980 381L980 377L854 377L855 370L860 371L859 365L863 365C863.807 361.127 865.059 359.642 869 359L868 354L870 359L980 359L980 335L890 335L891 327C897.084 331.261 908.762 329 916 329L980 329L980 323L899 323L900 316L905 317L904 311L908 311C908.807 307.127 910.059 305.642 914 305L913 300L915 305L980 305L980 281L935 281L936 273C945.177 279.428 968.843 275 980 275L980 269L944 269L945 262L950 263L949 257L953 257C953.807 253.127 955.06 251.642 959 251L958 246L960 251L980 251L980 229L974 229L980 224L978 201L978 200L980 196L979 196L978 198L976 194L980 194L980 193L975 193L974 188L980 188L980 0L973 0L973 187L972 187C967.476 167.997 971 144.528 971 125L971 0L968 0L968 182L967 182C962.617 163.588 966 140.918 966 122L966 0L961 0L961 177L960 177L960 0L958 0L958 176L957 176C952.757 158.179 956 136.308 956 118L956 0L931 0L931 128C931 141.069 935.757 166.216 928 177L928 0L927 0L927 177L926 177L926 0L922 0L922 134L922 167C922 172.463 922.959 177.806 919 182L919 0L917 0L917 120C917 139.524 920.981 163.887 916.721 182.906C915.992 186.161 913.024 187.895 912 191L911 191L911 188L910 188L911 193L907 193L906 198L905 198L905 193L800 193L801 29L629 29L575 29L546 28L546 27L800 27L800 0L799 0L799 23L627 23L573 23L544 22L544 21L798 21L798 0L797 0L797 19L543 19L543 17L796 17L796 0L541 0L541 14L539 14L539 0L536 0L536 9L535 9L534 0L530 0L530 5L528 5L528 0L525 3C520.757 -2.88391 505.738 0 499 0L493 5L493 0L490 0L490 8L488 8L488 0L483 0C483 5.34558 484.058 11.026 480 15L480 0L479 0C479 6.69159 480.063 13.3513 476 19L476 0L475 0L475 21L474 21L474 0L470 0L470 25L469 25L469 0L468 0L467 28L466 28L466 0L460 0L460 34L459 34L459 0L453 0C453 11.6633 456.961 32.3227 450 42L450 0L447 0L447 45L446 45L446 0L445 0L445 48L443 48L443 0L437 0C437 17.396 440.032 38.0637 436 55L435 55L435 0L429 0L429 61L428 61L428 0L421 0L421 69L419 69L419 0L417 0L417 72L416 72L416 0L414 0L414 75L413 75L413 0L407 0L407 60C407 66.715 409.106 77.0001 404 82L404 0L399 0L399 64C399 71.4579 401.405 83.2748 396 89L396 0L391 0L391 63L390 96L389 96L389 0L386 0L386 99L385 99L385 0L383 0L383 102L382 102L382 0L378 0L378 106L377 106L377 0L376 0L376 72L375 109L374 109L374 0L368 0L368 115L367 115L367 0L361 0L361 88C361 98.2111 364.138 114.467 358 123L358 0L353 0L353 129L351 129L351 0L345 0L345 136L343 136L343 0L338 0L338 142L336 142L336 0L332 0L332 147L331 147L331 0L330 0L330 111C330 120.585 334.073 143.074 327 150L327 0L325 0L325 153L324 153L324 0L322 0L322 156L321 156L321 0L317 0L317 160L316 160L316 0L315 0L315 109L314 163L313 163L313 0L310 0L310 166L309 166L309 0L307 0L307 169L306 169L306 0L300 0L300 128C300 141.069 304.757 166.216 297 177L297 0L294 0L294 180L293 180L293 0L292 0L292 183L290 183L290 0L284 0L284 127C284 146.832 287.595 170.702 283 190L282 190L282 0L276 0L276 196L275 196L275 0L268 0L268 204L266 204L266 0L264 0L264 207L263 207L263 0L261 0L261 210L260 210L260 0L254 0L254 216L252 216L252 0L24 0L24 166L24 204C24 211.295 24.9157 216.868 18 221L18 0L14 0L14 151C14 174.186 18.3682 202.452 13 225L12 225L12 0L9 0L9 230L7 230L7 0L0 0z"/>
<path style="fill:transparent; stroke:none;" d="M7 0L7 172L7 215L9 230C4.82757 212.475 8 191.003 8 173L8 59L8 19C8 13.113 9.29216 5.46246 7 0z"/>
<path style="fill:#181818; stroke:none;" d="M8 0L8 229L9 229L9 68L9 21L8 0z"/>
<path style="fill:transparent; stroke:none;" d="M12 0L12 225L13 225L13 67L13 21L12 0z"/>
<path style="fill:#181818; stroke:none;" d="M13 0L13 224L14 224L14 66L14 21L13 0z"/>
<path style="fill:transparent; stroke:none;" d="M18 0L18 221C24.9949 218.199 24 212.581 24 206L24 168L24 0L20 0L20 220L19 220L19 65L19 21L18 0z"/>
<path style="fill:#181818; stroke:none;" d="M19 0L19 220L20 220L20 65L20 21L19 0M252 0L252 216L253 216L253 64L253 20L252 0z"/>
<path style="fill:transparent; stroke:none;" d="M253 0L253 216L254 216L254 64L254 20L253 0M260 0L260 210L261 210L261 62L261 20L260 0M263 0L263 207L264 207L264 61L264 20L263 0M266 0L266 153L266 190L268 204L267 153L267 53L267 17L266 0z"/>
<path style="fill:#181818; stroke:none;" d="M267 0L267 203L268 203L268 60L268 19L267 0M275 0L275 196L276 196L276 58L276 19L275 0z"/>
<path style="fill:#181818; stroke:none;" d="M282 0L282 190L283 190L283 56L283 18L282 0z"/>
<path style="fill:#181818; stroke:none;" d="M283 0L283 189L284 189L284 56L284 18L283 0z"/>
<path style="fill:transparent; stroke:none;" d="M290 0L290 183L292 183L292 0L290 0M293 0L293 180L294 180L294 54L294 18L293 0M297 0L297 177L298 177L298 53L298 17L297 0z"/>
<path style="fill:#181818; stroke:none;" d="M298 0L298 176L299 176L299 52L299 17L298 0z"/>
<path style="fill:transparent; stroke:none;" d="M299 0L299 175L300 175L300 52L300 17L299 0z"/>
<path style="fill:#181818; stroke:none;" d="M306 0L306 169L307 169L307 50C307 35.9617 311.406 12.8831 306 0z"/>
<path style="fill:transparent; stroke:none;" d="M309 0L309 166L310 166L310 50C310 35.9617 314.406 12.8831 309 0z"/>
<path style="fill:#181818; stroke:none;" d="M313 0L313 163L314 163L314 49C314 35.2235 318.306 12.6452 313 0z"/>
<path style="fill:transparent; stroke:none;" d="M314 0L314 162L315 162L315 48C315 34.4851 319.206 12.4074 314 0M316 0L316 160L317 160L317 48C317 34.4851 321.206 12.4074 316 0z"/>
<path style="fill:#181818; stroke:none;" d="M321 0L321 156L322 156L322 47C322 33.7469 326.107 12.1696 321 0z"/>
<path style="fill:transparent; stroke:none;" d="M324 0L324 153L325 153L325 46C325 33.0086 329.007 11.9317 324 0M327 0L327 150C333.896 145.529 330 120.882 330 113L330 0L327 0M331 0L331 147L332 147L332 44C332 31.5323 335.807 11.4559 331 0z"/>
<path style="fill:#181818; stroke:none;" d="M336 0L336 142L337 142L337 43C337 30.7942 340.707 11.218 336 0z"/>
<path style="fill:transparent; stroke:none;" d="M337 0L337 142L338 142L338 43C338 30.7942 341.707 11.2179 337 0z"/>
<path style="fill:#181818; stroke:none;" d="M343 0L343 136L344 136L344 41C344 29.3179 347.507 10.7419 343 0z"/>
<path style="fill:#181818; stroke:none;" d="M344 0L344 135L345 135L345 41C345 29.3179 348.507 10.7419 344 0z"/>
<path style="fill:transparent; stroke:none;" d="M351 0L351 96C351 103.18 347.539 124.228 353 129L352 96L352 34L351 0z"/>
<path style="fill:#181818; stroke:none;" d="M352 0L352 128L353 128L353 39C353 27.8419 356.308 10.2657 352 0z"/>
<path style="fill:transparent; stroke:none;" d="M358 0L358 123L359 123L359 37C359 26.366 362.108 9.78925 358 0z"/>
<path style="fill:#181818; stroke:none;" d="M359 0L359 122L360 122L360 37C360 26.366 363.108 9.78925 359 0z"/>
<path style="fill:#181818; stroke:none;" d="M360 0L360 121L361 121L361 37C361 26.3661 364.108 9.78925 360 0z"/>
<path style="fill:#181818; stroke:none;" d="M367 0L367 115L368 115L368 35L367 0z"/>
<path style="fill:#181818; stroke:none;" d="M374 0L374 109L375 109L376 73L376 0L374 0z"/>
<path style="fill:transparent; stroke:none;" d="M377 0L377 106L378 106L378 32L377 0M382 0L382 102L383 102L383 31L382 0M385 0L385 99L386 99L386 30L385 0M389 0L389 96L390 96L390 29L389 0z"/>
<path style="fill:#181818; stroke:none;" d="M390 0L390 95L391 95L391 29L390 0z"/>
<path style="fill:#181818; stroke:none;" d="M396 0L396 89L397 89L397 27L396 0z"/>
<path style="fill:#181818; stroke:none;" d="M397 0L397 88L398 88L398 27L397 0z"/>
<path style="fill:transparent; stroke:none;" d="M398 0L398 88L399 88L399 27L398 0z"/>
<path style="fill:#181818; stroke:none;" d="M404 0L404 82L405 82L405 25L404 0z"/>
<path style="fill:#181818; stroke:none;" d="M405 0L405 81L406 81L406 25L405 0z"/>
<path style="fill:transparent; stroke:none;" d="M406 0L406 81L407 81L407 25L406 0M413 0L413 75L414 75L414 23L413 0M416 0L416 72L417 72L417 23L416 0M419 0L419 51C419 55.9009 417.101 65.5928 421 69L420 19L419 0z"/>
<path style="fill:#181818; stroke:none;" d="M420 0L420 68L421 68L421 21L420 0M428 0L428 61L429 61L429 20L428 0z"/>
<path style="fill:#181818; stroke:none;" d="M435 0L435 55L436 55L436 18L435 0z"/>
<path style="fill:#181818; stroke:none;" d="M436 0L436 54L437 54L437 18L436 0z"/>
<path style="fill:transparent; stroke:none;" d="M443 0L443 48L445 48L445 0L443 0M446 0L446 45L447 45C447 32.258 450.91 11.7012 446 0M450 0L450 42L451 42C451 30.0427 454.611 10.9879 450 0z"/>
<path style="fill:#181818; stroke:none;" d="M451 0L451 41L452 41C452 29.3043 455.511 10.7499 451 0z"/>
<path style="fill:transparent; stroke:none;" d="M452 0L452 40L453 40C453 28.566 456.411 10.5119 452 0z"/>
<path style="fill:#181818; stroke:none;" d="M459 0L459 34L460 34L459 0M466 0L466 28L467 28L466 0z"/>
<path style="fill:transparent; stroke:none;" d="M467 0L467 27L468 27L467 0M469 0L469 25L470 25L469 0M474 0L474 21L475 21L474 0M476 0L476 19C480.694 14.4034 479 6.16608 479 0L476 0M480 0L480 15C484.564 12.0411 483 4.9126 483 0L480 0z"/>
<path style="fill:#181818; stroke:none;" d="M488 0L488 8L489 8L488 0z"/>
<path style="fill:transparent; stroke:none;" d="M489 0L489 8L490 8L489 0M493 0L493 5L499 0L493 0M524.333 0.666687L524.667 1.33331L524.333 0.666687z"/>
<path style="fill:#181818; stroke:none;" d="M525 0L525 3L526 3L525 0M528 0L528 4L529 4L528 0z"/>
<path style="fill:transparent; stroke:none;" d="M529 0L528 5L529 0z"/>
<path style="fill:#181818; stroke:none;" d="M534 0L534 8L535 8L534 0z"/>
<path style="fill:transparent; stroke:none;" d="M535 0L535 9L536 9L535 0z"/>
<path style="fill:#181818; stroke:none;" d="M539 0L539 13L540 13L539 0z"/>
<path style="fill:transparent; stroke:none;" d="M540 0L539 14C542.259 11.1523 541.58 3.7663 540 0z"/>
<path style="fill:#181818; stroke:none;" d="M796 0L796 17L543 17L543 19L797 19L796 0z"/>
<path style="fill:transparent; stroke:none;" d="M798 0L798 21L544 21L544 22L571 23L624 23L799 23L798 0M800 0L800 27L546 27L546 28L573 29L626 29L801 29L800 193L911 193L910 188L915 188C910.476 168.997 914 145.528 914 126L914 0L800 0z"/>
<path style="fill:#181818; stroke:none;" d="M914 0L914 187L915 187L915 56L915 18L914 0z"/>
<path style="fill:#181818; stroke:none;" d="M915 0L915 186L916 186L916 55L916 18L915 0z"/>
<path style="fill:transparent; stroke:none;" d="M916 0L916 186L917 186L917 55L917 18L916 0M919 0L919 182L920 182L920 54L920 18L919 0z"/>
<path style="fill:#181818; stroke:none;" d="M920 0L920 181L921 181L921 54L921 18L920 0z"/>
<path style="fill:transparent; stroke:none;" d="M921 0L921 181L922 181L922 54L922 18L921 0z"/>
<path style="fill:#181818; stroke:none;" d="M926 0L926 177L927 177L927 53L927 17L926 0M928 0L928 176L929 176L929 52L929 17L928 0z"/>
<path style="fill:transparent; stroke:none;" d="M929 0L929 176L930 176C934.84 159.628 931 137.094 931 120L931 0L929 0M956 0L956 120C956 137.094 952.16 159.628 957 176L958 176L958 0L956 0z"/>
<path style="fill:#181818; stroke:none;" d="M960 0L960 177L961 177L961 53L961 17L960 0M966 0L966 181L967 181L967 54L967 18L966 0z"/>
<path style="fill:transparent; stroke:none;" d="M967 0L967 182L968 182L968 54L968 18L967 0z"/>
<path style="fill:#181818; stroke:none;" d="M971 0L971 186L972 186L972 55L972 18L971 0z"/>
<path style="fill:transparent; stroke:none;" d="M972 0L972 187L973 187L973 56L973 18L972 0z"/>
<path style="fill:#181818; stroke:none;" d="M678 49L678 181L679 181L679 89C679 77.58 682.408 59.5036 678 49z"/>
<path style="fill:transparent; stroke:none;" d="M679 49L679 182L680 182L680 89C680 77.58 683.408 59.5036 679 49z"/>
<path style="fill:#181818; stroke:none;" d="M683 49L683 186L684 186L684 90C684 78.3181 687.508 59.7418 683 49z"/>
<path style="fill:#181818; stroke:none;" d="M684 49L684 187L685 187L685 91C685 79.0561 688.607 59.9798 684 49M672 51L672 177L673 177L673 89C673 78.1041 676.208 61.0273 672 51z"/>
<path style="fill:transparent; stroke:none;" d="M668 53L668 136L669 176L670 176L670 53L668 53M642 79C634.531 110.374 647.469 145.626 640 177C645.363 171.748 643 160.072 643 153L643 102C643 95.049 644.701 85.436 642 79M405 81L406 82L405 81z"/>
<path style="fill:#181818; stroke:none;" d="M640 82L640 176L641 176L641 111L640 82M638 85L638 177L639 177L639 113L638 85z"/>
<path style="fill:transparent; stroke:none;" d="M633 93L633 181L634 181L634 120L633 93z"/>
<path style="fill:#181818; stroke:none;" d="M632 95L632 181L633 181L633 122L632 95z"/>
<path style="fill:transparent; stroke:none;" d="M631 97L631 182L632 182L632 123L631 97M628 103L628 185L629 185L629 128L628 103z"/>
<path style="fill:#181818; stroke:none;" d="M627 105L627 186L628 186L628 130L627 105z"/>
<path style="fill:transparent; stroke:none;" d="M626 107L587 187L627 187L627 132L626 107M344 135L345 136L344 135M928 176L929 177L928 176M684 187L685 188L684 187z"/>
<path style="fill:#181818; stroke:none;" d="M911 188L911 191L912 191L911 188z"/>
<path style="fill:transparent; stroke:none;" d="M974 188L974 190L980 190L980 188L974 188M689 189L688 193L689 189M585 191L585 192L625 191C616.109 187.269 594.219 188.275 585 191z"/>
<path style="fill:#181818; stroke:none;" d="M975 190L980 193L980 190L975 190z"/>
<path style="fill:transparent; stroke:none;" d="M975 192L976 193L975 192z"/>
<path style="fill:#181818; stroke:none;" d="M905 193L905 198L906 198L905 193z"/>
<path style="fill:#181818; stroke:none;" d="M906 193L906 197L907 197L906 193z"/>
<path style="fill:transparent; stroke:none;" d="M584 197L622 198L622 194C613.967 194 588.531 190.01 584 197z"/>
<path style="fill:#181818; stroke:none;" d="M622 194L623 195L622 194z"/>
<path style="fill:transparent; stroke:none;" d="M976 194L976 195L980 196L976 194z"/>
<path style="fill:#181818; stroke:none;" d="M692.333 195.667L692.667 196.333L692.333 195.667z"/>
<path style="fill:#181818; stroke:none;" d="M693 195L693 198L694 198L693 195z"/>
<path style="fill:transparent; stroke:none;" d="M691 196L692 197L691 196z"/>
<path style="fill:#181818; stroke:none;" d="M978.333 196.667L978.667 197.333L978.333 196.667z"/>
<path style="fill:transparent; stroke:none;" d="M900 199L902 204L900 199z"/>
<path style="fill:#181818; stroke:none;" d="M902 199L902 202L903 202L902 199z"/>
<path style="fill:transparent; stroke:none;" d="M584 200L584 201L621 201C611.202 196.889 594.649 200 584 200M698 200L698 204L699 204L698 200z"/>
<path style="fill:#181818; stroke:none;" d="M701 200L701 208L735 207L800 207L800 200L701 200z"/>
<path style="fill:transparent; stroke:none;" d="M978.667 200.333L979.333 200.667L978.667 200.333z"/>
<path style="fill:#181818; stroke:none;" d="M896 206L896 209L897 209L896 206z"/>
<path style="fill:#181818; stroke:none;" d="M897.333 206.667L897.667 207.333L897.333 206.667z"/>
<path style="fill:transparent; stroke:none;" d="M702.333 207.667L702.667 208.333L702.333 207.667z"/>
<path style="fill:#181818; stroke:none;" d="M800 211L800 218L884 218L884 223L885 223L885 218L889 219L889 211L800 211z"/>
<path style="fill:transparent; stroke:none;" d="M890 211L890 216L893 211L890 211z"/>
<path style="fill:#181818; stroke:none;" d="M893.333 211.667L893.667 212.333L893.333 211.667M710 213L710 218L711 218L710 213z"/>
<path style="fill:#181818; stroke:none;" d="M711 213L711 219L800 219L800 213L711 213z"/>
<path style="fill:transparent; stroke:none;" d="M979 215L979 221L980 221L979 215M584 216L584 217L621 217C611.202 212.889 594.649 216 584 216M887.333 218.667L887.667 219.333L887.333 218.667M621 219L622 220L621 219M711 219L712 220L711 219z"/>
<path style="fill:#181818; stroke:none;" d="M715 219L715 224L716 224L715 219z"/>
<path style="fill:#181818; stroke:none;" d="M716 219L716 225L800 225L800 219L716 219z"/>
<path style="fill:#181818; stroke:none;" d="M978.333 219.667L978.667 220.333L978.333 219.667z"/>
<path style="fill:#181818; stroke:none;" d="M584 220L584 221L622 221C611.964 216.789 594.911 220 584 220z"/>
<path style="fill:transparent; stroke:none;" d="M584 221C588.183 235.689 612.063 230 625 230C623.147 215.232 595.36 221 584 221M976 222L977 223L976 222M715 224L716 225L715 224M721 225L720 231L879 231L878 224L721 225z"/>
<path style="fill:#181818; stroke:none;" d="M878 224L878 230L879 230L878 224z"/>
<path style="fill:#181818; stroke:none;" d="M879 224L879 229L880 229L879 224z"/>
<path style="fill:transparent; stroke:none;" d="M881 224L881 227L882 227L881 224M883 224L884 225L883 224z"/>
<path style="fill:#181818; stroke:none;" d="M975 229L980 229L980 224C976.597 224.588 975.728 225.649 975 229M719 225L719 229L720 229L719 225z"/>
<path style="fill:#181818; stroke:none;" d="M720 225L720 230L721 230L720 225z"/>
<path style="fill:transparent; stroke:none;" d="M974.333 227.667L974.667 228.333L974.333 227.667z"/>
<path style="fill:#181818; stroke:none;" d="M627 231L627 235L589 235C592.546 244.645 621.879 240 631 240L631 235L628 235L627 231M725 231L725 236L726 236L725 231M800 231L800 236L874 236L874 231L800 231z"/>
<path style="fill:#181818; stroke:none;" d="M875 231L875 234L876 234L875 231z"/>
<path style="fill:transparent; stroke:none;" d="M971.333 231.667L971.667 232.333L971.333 231.667z"/>
<path style="fill:#181818; stroke:none;" d="M0 233L0 235L5 235L5 233L0 233z"/>
<path style="fill:transparent; stroke:none;" d="M629.333 233.667L629.667 234.333L629.333 233.667M631 235L632 236L631 235M724 235L725 236L724 235M874 235L875 236L874 235M967 235L968 239L969 239L967 235M800 236L800 242L870 242L869 236L800 236z"/>
<path style="fill:#181818; stroke:none;" d="M869 236L869 241L870 241L869 236z"/>
<path style="fill:#181818; stroke:none;" d="M870 236L870 240L871 240L870 236z"/>
<path style="fill:transparent; stroke:none;" d="M872.333 236.667L872.667 237.333L872.333 236.667M0 239L4 238L0 239z"/>
<path style="fill:#181818; stroke:none;" d="M632 237L632 240L633 240L632 237M728 237L728 240L729 240L728 237z"/>
<path style="fill:#181818; stroke:none;" d="M729 237L729 241L730 241L729 237z"/>
<path style="fill:transparent; stroke:none;" d="M2 240L3 241L2 240M591 240C594.414 251.121 624.938 246 635 246L636 240L591 240z"/>
<path style="fill:#181818; stroke:none;" d="M635 241L635 246L636 246L635 241z"/>
<path style="fill:#181818; stroke:none;" d="M963 241L963 245L964 245L963 241z"/>
<path style="fill:#181818; stroke:none;" d="M636 242L636 246L637 246L636 242z"/>
<path style="fill:#181818; stroke:none;" d="M800 242L800 247L860 247L860 252L861 252L861 247L865 247L865 242L800 242z"/>
<path style="fill:#181818; stroke:none;" d="M866 242L866 245L867 245L866 242M962 242L962 245L963 245L962 242z"/>
<path style="fill:transparent; stroke:none;" d="M0.333333 243.667L0.666667 244.333L0.333333 243.667M734 243L733 247L734 243M638.333 244.667L638.667 245.333L638.333 244.667z"/>
<path style="fill:#181818; stroke:none;" d="M593 246C595.904 252.103 600.983 251 607 251L640 251L640 246L593 246z"/>
<path style="fill:transparent; stroke:none;" d="M640 246L641 247L640 246M865 246L866 247L865 246M958 246L959 247L958 246z"/>
<path style="fill:#181818; stroke:none;" d="M959 246L959 251L960 251L959 246z"/>
<path style="fill:#181818; stroke:none;" d="M861 247L861 251L862 251L861 247z"/>
<path style="fill:transparent; stroke:none;" d="M863.333 247.667L863.667 248.333L863.333 247.667z"/>
<path style="fill:#181818; stroke:none;" d="M641 248L641 251L642 251L641 248M737.333 249.667L737.667 250.333L737.333 249.667z"/>
<path style="fill:#181818; stroke:none;" d="M738 249L738 252L739 252L738 249z"/>
<path style="fill:transparent; stroke:none;" d="M595 251C600.45 263.846 631.616 258 644 258L645 251L595 251M954 251L955 257L980 257L980 251L954 251z"/>
<path style="fill:#181818; stroke:none;" d="M644 252L644 258L645 258L644 252z"/>
<path style="fill:#181818; stroke:none;" d="M954 252L954 257L955 257L954 252z"/>
<path style="fill:#181818; stroke:none;" d="M645 253L645 258L646 258L645 253z"/>
<path style="fill:transparent; stroke:none;" d="M855 253L857 258L855 253z"/>
<path style="fill:#181818; stroke:none;" d="M857 253L857 256L858 256L857 253M953 253L953 257L954 257L953 253z"/>
<path style="fill:transparent; stroke:none;" d="M647 255L647 258L648 258L647 255M743 255L743 258L744 258L743 255z"/>
<path style="fill:#181818; stroke:none;" d="M746 255L746 262L800 261L800 255L746 255z"/>
<path style="fill:transparent; stroke:none;" d="M649 257L650 258L649 257M949 257L950 258L949 257z"/>
<path style="fill:#181818; stroke:none;" d="M950 257L950 263L980 263L980 257L950 257z"/>
<path style="fill:#181818; stroke:none;" d="M650 259L650 264L601 264C603.471 272.22 609.659 271 617 271L655 271L655 263L651 264L650 259z"/>
<path style="fill:#181818; stroke:none;" d="M851 260L851 263L852 263L851 260z"/>
<path style="fill:#181818; stroke:none;" d="M852.333 260.667L852.667 261.333L852.333 260.667z"/>
<path style="fill:transparent; stroke:none;" d="M747.333 261.667L747.667 262.333L747.333 261.667M853 261L854 262L853 261M653.333 262.667L653.667 263.333L653.333 262.667M945 262L946 263L945 262z"/>
<path style="fill:#181818; stroke:none;" d="M945 263L945 269L980 269L980 263L945 263z"/>
<path style="fill:#181818; stroke:none;" d="M944 264L944 269L945 269L944 264M800 265L800 272L839 272L839 277L840 277L840 272L844 273L844 265L800 265z"/>
<path style="fill:transparent; stroke:none;" d="M845 265L845 270L848 265L845 265z"/>
<path style="fill:#181818; stroke:none;" d="M848.333 265.667L848.667 266.333L848.333 265.667z"/>
<path style="fill:transparent; stroke:none;" d="M656 266C656.064 268.993 655.946 270.346 659 271L656 266z"/>
<path style="fill:#181818; stroke:none;" d="M755 267L755 272L756 272L755 267z"/>
<path style="fill:#181818; stroke:none;" d="M756 267L756 273L800 273L800 267L756 267z"/>
<path style="fill:#181818; stroke:none;" d="M659.333 269.667L659.667 270.333L659.333 269.667z"/>
<path style="fill:transparent; stroke:none;" d="M842.333 272.667L842.667 273.333L842.333 272.667z"/>
<path style="fill:#181818; stroke:none;" d="M662 273L662 276L663 276L662 273z"/>
<path style="fill:transparent; stroke:none;" d="M756 273L757 274L756 273z"/>
<path style="fill:#181818; stroke:none;" d="M761 273L761 279L800 279L800 273L761 273z"/>
<path style="fill:transparent; stroke:none;" d="M936.333 273.667L936.667 274.333L936.333 273.667z"/>
<path style="fill:#181818; stroke:none;" d="M663.333 274.667L663.667 275.333L663.333 274.667z"/>
<path style="fill:transparent; stroke:none;" d="M664 274L665 275L664 274z"/>
<path style="fill:#181818; stroke:none;" d="M935 274L935 281L980 281L980 275L935 274z"/>
<path style="fill:transparent; stroke:none;" d="M666 278L666 283L667 283L668 278L666 278M760 278L761 279L760 278M766 279L765 285L834 285L833 278L766 279z"/>
<path style="fill:#181818; stroke:none;" d="M833 278L833 284L834 284L833 278z"/>
<path style="fill:#181818; stroke:none;" d="M834 278L834 283L835 283L834 278z"/>
<path style="fill:transparent; stroke:none;" d="M836 278L836 281L837 281L836 278M838 278L839 279L838 278M932 278L932 281L933 281L932 278z"/>
<path style="fill:#181818; stroke:none;" d="M764 279L764 283L765 283L764 279z"/>
<path style="fill:#181818; stroke:none;" d="M765 279L765 284L766 284L765 279z"/>
<path style="fill:#181818; stroke:none;" d="M668 280L668 283L669 283L668 280z"/>
<path style="fill:#181818; stroke:none;" d="M671 284L671 289L611 289C614.242 295.814 621.435 294 628 294L676 294L676 289L672 289L671 284M927 284L927 287L928 287L927 284z"/>
<path style="fill:#181818; stroke:none;" d="M672 285L672 289L673 289L672 285z"/>
<path style="fill:#181818; stroke:none;" d="M770 285L770 290L771 290L770 285M800 285L800 290L829 290L829 285L800 285z"/>
<path style="fill:#181818; stroke:none;" d="M830 285L830 288L831 288L830 285M926.333 285.667L926.667 286.333L926.333 285.667z"/>
<path style="fill:transparent; stroke:none;" d="M674.333 287.667L674.667 288.333L674.333 287.667M676 289L677 290L676 289M769 289L770 290L769 289M829 289L830 290L829 289M922 289L923 293L924 293L922 289M800 290L800 296L825 296L824 290L800 290z"/>
<path style="fill:#181818; stroke:none;" d="M824 290L824 295L825 295L824 290z"/>
<path style="fill:#181818; stroke:none;" d="M825 290L825 294L826 294L825 290z"/>
<path style="fill:transparent; stroke:none;" d="M827.333 290.667L827.667 291.333L827.333 290.667z"/>
<path style="fill:#181818; stroke:none;" d="M677 291L677 294L678 294L677 291M773 291L773 294L774 294L773 291z"/>
<path style="fill:#181818; stroke:none;" d="M774 291L774 295L775 295L774 291z"/>
<path style="fill:transparent; stroke:none;" d="M613 294C616.508 301.717 623.626 300 631 300L680 300L681 294L613 294z"/>
<path style="fill:#181818; stroke:none;" d="M680 295L680 300L681 300L680 295z"/>
<path style="fill:#181818; stroke:none;" d="M918 295L918 299L919 299L918 295z"/>
<path style="fill:#181818; stroke:none;" d="M681 296L681 300L682 300L681 296z"/>
<path style="fill:#181818; stroke:none;" d="M800 296L800 301L815 301L815 306L816 306L816 301L820 301L820 296L800 296z"/>
<path style="fill:#181818; stroke:none;" d="M821 296L821 299L822 299L821 296M917 296L917 299L918 299L917 296z"/>
<path style="fill:transparent; stroke:none;" d="M779 297L778 301L779 297M683.333 298.667L683.667 299.333L683.333 298.667z"/>
<path style="fill:#181818; stroke:none;" d="M616 300C618.637 307.173 627.632 305 634 305L685 305L685 300L616 300z"/>
<path style="fill:transparent; stroke:none;" d="M685 300L686 301L685 300M820 300L821 301L820 300M913 300L914 301L913 300z"/>
<path style="fill:#181818; stroke:none;" d="M914 300L914 305L915 305L914 300z"/>
<path style="fill:#181818; stroke:none;" d="M816 301L816 305L817 305L816 301z"/>
<path style="fill:transparent; stroke:none;" d="M818.333 301.667L818.667 302.333L818.333 301.667z"/>
<path style="fill:#181818; stroke:none;" d="M686 302L686 305L687 305L686 302M782.333 303.667L782.667 304.333L782.333 303.667z"/>
<path style="fill:#181818; stroke:none;" d="M783 303L783 306L784 306L783 303z"/>
<path style="fill:transparent; stroke:none;" d="M618 305C620.731 314.087 629.116 312 637 312L689 312L690 305L618 305M909 305L910 311L980 311L980 305L909 305z"/>
<path style="fill:#181818; stroke:none;" d="M689 306L689 312L690 312L689 306z"/>
<path style="fill:#181818; stroke:none;" d="M909 306L909 311L910 311L909 306z"/>
<path style="fill:#181818; stroke:none;" d="M690 307L690 312L691 312L690 307z"/>
<path style="fill:transparent; stroke:none;" d="M810 307L812 312L810 307z"/>
<path style="fill:#181818; stroke:none;" d="M812 307L812 310L813 310L812 307M908 307L908 311L909 311L908 307z"/>
<path style="fill:transparent; stroke:none;" d="M692 309L692 312L693 312L692 309M788 309L788 312L789 312L788 309z"/>
<path style="fill:#181818; stroke:none;" d="M791 309L791 316L800 315L800 309L791 309z"/>
<path style="fill:transparent; stroke:none;" d="M694 311L695 312L694 311M904 311L905 312L904 311z"/>
<path style="fill:#181818; stroke:none;" d="M905 311L905 317L980 317L980 311L905 311z"/>
<path style="fill:#181818; stroke:none;" d="M695 313L695 318L623 318C626.944 327.297 635.217 325 644 325L700 325L700 317L696 318L695 313z"/>
<path style="fill:#181818; stroke:none;" d="M806 314L806 317L807 317L806 314z"/>
<path style="fill:#181818; stroke:none;" d="M807.333 314.667L807.667 315.333L807.333 314.667z"/>
<path style="fill:transparent; stroke:none;" d="M792.333 315.667L792.667 316.333L792.333 315.667M808 315L809 316L808 315M698.333 316.667L698.667 317.333L698.333 316.667M900 316L901 317L900 316z"/>
<path style="fill:#181818; stroke:none;" d="M900 317L900 323L980 323L980 317L900 317z"/>
<path style="fill:#181818; stroke:none;" d="M899 318L899 323L900 323L899 318z"/>
<path style="fill:transparent; stroke:none;" d="M800 319L800 324L803 319L800 319z"/>
<path style="fill:#181818; stroke:none;" d="M803.333 319.667L803.667 320.333L803.333 319.667z"/>
<path style="fill:transparent; stroke:none;" d="M701 320C701.064 322.993 700.946 324.346 704 325L701 320z"/>
<path style="fill:#181818; stroke:none;" d="M704.333 323.667L704.667 324.333L704.333 323.667z"/>
<path style="fill:#181818; stroke:none;" d="M707 327L707 330L708 330L707 327z"/>
<path style="fill:transparent; stroke:none;" d="M891.333 327.667L891.667 328.333L891.333 327.667z"/>
<path style="fill:#181818; stroke:none;" d="M708.333 328.667L708.667 329.333L708.333 328.667z"/>
<path style="fill:transparent; stroke:none;" d="M709 328L710 329L709 328z"/>
<path style="fill:#181818; stroke:none;" d="M890 328L890 335L980 335L980 329L922 329L890 328z"/>
<path style="fill:transparent; stroke:none;" d="M711 332L711 337L712 337L713 332L711 332M887 332L887 335L888 335L887 332z"/>
<path style="fill:#181818; stroke:none;" d="M713 334L713 337L714 337L713 334z"/>
<path style="fill:#181818; stroke:none;" d="M716 338L716 343L634 343C636.872 350.811 649.1 348 656 348L721 348L721 343L717 343L716 338M882 338L882 341L883 341L882 338z"/>
<path style="fill:#181818; stroke:none;" d="M717 339L717 343L718 343L717 339M881.333 339.667L881.667 340.333L881.333 339.667z"/>
<path style="fill:transparent; stroke:none;" d="M719.333 341.667L719.667 342.333L719.333 341.667M721 343L722 344L721 343M877 343L878 347L879 347L877 343z"/>
<path style="fill:#181818; stroke:none;" d="M722 345L722 348L723 348L722 345z"/>
<path style="fill:transparent; stroke:none;" d="M636 348C638.75 356.957 650.338 354 658 354L725 354L726 348L636 348z"/>
<path style="fill:#181818; stroke:none;" d="M725 349L725 354L726 354L725 349z"/>
<path style="fill:#181818; stroke:none;" d="M873 349L873 353L874 353L873 349z"/>
<path style="fill:#181818; stroke:none;" d="M726 350L726 354L727 354L726 350M872 350L872 353L873 353L872 350z"/>
<path style="fill:transparent; stroke:none;" d="M728.333 352.667L728.667 353.333L728.333 352.667z"/>
<path style="fill:#181818; stroke:none;" d="M638 354C641.729 361.839 653.539 359 661 359L730 359L730 354L638 354z"/>
<path style="fill:transparent; stroke:none;" d="M730 354L731 355L730 354M868 354L869 355L868 354z"/>
<path style="fill:#181818; stroke:none;" d="M869 354L869 359L870 359L869 354z"/>
<path style="fill:#181818; stroke:none;" d="M731 356L731 359L732 359L731 356z"/>
<path style="fill:transparent; stroke:none;" d="M640 359C644.207 368.917 654.728 366 664 366L734 366L735 359L640 359M864 359L865 365L980 365L980 359L864 359z"/>
<path style="fill:#181818; stroke:none;" d="M734 360L734 366L735 366L734 360z"/>
<path style="fill:#181818; stroke:none;" d="M864 360L864 365L865 365L864 360z"/>
<path style="fill:#181818; stroke:none;" d="M735 361L735 366L736 366L735 361M863 361L863 365L864 365L863 361z"/>
<path style="fill:transparent; stroke:none;" d="M737 363L737 366L738 366L737 363M739 365L740 366L739 365M859 365L860 366L859 365z"/>
<path style="fill:#181818; stroke:none;" d="M860 365L860 371L980 371L980 365L860 365z"/>
<path style="fill:#181818; stroke:none;" d="M740 367L740 372L646 372C649.103 382.324 662.242 379 671 379L745 379L745 371L741 372L740 367z"/>
<path style="fill:transparent; stroke:none;" d="M743.333 370.667L743.667 371.333L743.333 370.667M855 370L856 371L855 370z"/>
<path style="fill:#181818; stroke:none;" d="M855 371L855 377L980 377L980 371L855 371z"/>
<path style="fill:#181818; stroke:none;" d="M854 372L854 377L855 377L854 372z"/>
<path style="fill:transparent; stroke:none;" d="M746 374C746.064 376.993 745.946 378.346 749 379L746 374z"/>
<path style="fill:#181818; stroke:none;" d="M749.333 377.667L749.667 378.333L749.333 377.667M749 381L749 385L750 385L749 381z"/>
<path style="fill:transparent; stroke:none;" d="M752 381L753 382L752 381z"/>
<path style="fill:#181818; stroke:none;" d="M851 381L851 387L980 387L980 381L851 381z"/>
<path style="fill:transparent; stroke:none;" d="M645 393L744 393L743 386L669 386C660.375 386 648.051 382.849 645 393z"/>
<path style="fill:#181818; stroke:none;" d="M743 386L743 392L744 392L743 386z"/>
<path style="fill:#181818; stroke:none;" d="M744 386L744 391L745 391L744 386z"/>
<path style="fill:transparent; stroke:none;" d="M746 386L746 389L747 389L746 386M748 386L749 387L748 386M850 386L851 387L850 386z"/>
<path style="fill:#181818; stroke:none;" d="M854 387L854 391L855 391L854 387z"/>
<path style="fill:#181818; stroke:none;" d="M855 387L855 392L856 392L855 387z"/>
<path style="fill:transparent; stroke:none;" d="M856 387L855 393L980 393L980 387L856 387z"/>
<path style="fill:#181818; stroke:none;" d="M643 398L739 398L739 393L667 393C659.855 393 645.968 389.929 643 398z"/>
<path style="fill:#181818; stroke:none;" d="M740 393L740 396L741 396L740 393z"/>
<path style="fill:#181818; stroke:none;" d="M860 393L860 398L861 398L860 393z"/>
<path style="fill:transparent; stroke:none;" d="M739 397L740 398L739 397M859 397L860 398L859 397M640 404L735 404L734 398L664 398C655.652 398 644.046 395.099 640 404z"/>
<path style="fill:#181818; stroke:none;" d="M734 398L734 403L735 403L734 398z"/>
<path style="fill:#181818; stroke:none;" d="M735 398L735 402L736 402L735 398z"/>
<path style="fill:transparent; stroke:none;" d="M737.333 398.667L737.667 399.333L737.333 398.667z"/>
<path style="fill:#181818; stroke:none;" d="M863 399L863 402L864 402L863 399z"/>
<path style="fill:#181818; stroke:none;" d="M864 399L864 403L865 403L864 399M638 409L725 409L725 414L726 414L726 409L730 409L730 404L661 404C653.539 404 641.729 401.161 638 409z"/>
<path style="fill:#181818; stroke:none;" d="M731 404L731 407L732 407L731 404z"/>
<path style="fill:transparent; stroke:none;" d="M869 405L868 409L869 405M730 408L731 409L730 408z"/>
<path style="fill:#181818; stroke:none;" d="M726 409L726 413L727 413L726 409z"/>
<path style="fill:transparent; stroke:none;" d="M728.333 409.667L728.667 410.333L728.333 409.667z"/>
<path style="fill:#181818; stroke:none;" d="M872.333 411.667L872.667 412.333L872.333 411.667z"/>
<path style="fill:#181818; stroke:none;" d="M873 411L873 414L874 414L873 411z"/>
<path style="fill:transparent; stroke:none;" d="M720 415L722 420L720 415z"/>
<path style="fill:#181818; stroke:none;" d="M722 415L722 418L723 418L722 415z"/>
<path style="fill:transparent; stroke:none;" d="M878 417L878 420L879 420L878 417z"/>
<path style="fill:#181818; stroke:none;" d="M881 417L881 424L915 423L980 423L980 417L881 417z"/>
<path style="fill:#181818; stroke:none;" d="M716 422L716 425L717 425L716 422z"/>
<path style="fill:#181818; stroke:none;" d="M717.333 422.667L717.667 423.333L717.333 422.667z"/>
<path style="fill:transparent; stroke:none;" d="M718 423L719 424L718 423M882.333 423.667L882.667 424.333L882.333 423.667z"/>
<path style="fill:#181818; stroke:none;" d="M628 434L704 434L704 439L705 439L705 434L709 435L709 427L649 427C640.801 427 630.873 424.441 628 434z"/>
<path style="fill:transparent; stroke:none;" d="M710 427L710 432L713 427L710 427z"/>
<path style="fill:#181818; stroke:none;" d="M713.333 427.667L713.667 428.333L713.333 427.667M890 429L890 434L891 434L890 429z"/>
<path style="fill:#181818; stroke:none;" d="M891 429L891 435L980 435L980 429L891 429z"/>
<path style="fill:transparent; stroke:none;" d="M707.333 434.667L707.667 435.333L707.333 434.667M891 435L892 436L891 435z"/>
<path style="fill:#181818; stroke:none;" d="M896 435L896 441L980 441L980 435L896 435z"/>
<path style="fill:transparent; stroke:none;" d="M622 447L699 447L698 440L643 440C634.217 440 625.944 437.703 622 447z"/>
<path style="fill:#181818; stroke:none;" d="M698 440L698 446L699 446L698 440z"/>
<path style="fill:#181818; stroke:none;" d="M699 440L699 445L700 445L699 440z"/>
<path style="fill:transparent; stroke:none;" d="M701 440L701 443L702 443L701 440M703 440L704 441L703 440M797 440L797 443L798 443L797 440M801 440L801 445L802 445L803 440L801 440M895 440L896 441L895 440z"/>
<path style="fill:#181818; stroke:none;" d="M899 441L899 445L900 445L899 441z"/>
<path style="fill:#181818; stroke:none;" d="M900 441L900 446L901 446L900 441z"/>
<path style="fill:transparent; stroke:none;" d="M901 441L900 447L980 447L980 441L901 441z"/>
<path style="fill:#181818; stroke:none;" d="M803 442L803 445L804 445L803 442z"/>
<path style="fill:#181818; stroke:none;" d="M792 446L792 449L793 449L792 446M806 446L806 451L800 451L800 456L811 456L811 451L807 451L806 446M620 452L694 452L694 447L639 447C632.115 447 623.426 444.798 620 452z"/>
<path style="fill:#181818; stroke:none;" d="M695 447L695 450L696 450L695 447M791.333 447.667L791.667 448.333L791.333 447.667M807 447L807 451L808 451L807 447z"/>
<path style="fill:#181818; stroke:none;" d="M905 447L905 452L906 452L905 447z"/>
<path style="fill:transparent; stroke:none;" d="M809.333 449.667L809.667 450.333L809.333 449.667M694 451L695 452L694 451M787 451L788 455L789 455L787 451M811 451L812 452L811 451M904 451L905 452L904 451M618 458L690 458L689 452L636 452C628.886 452 620.516 449.805 618 458z"/>
<path style="fill:#181818; stroke:none;" d="M689 452L689 457L690 457L689 452z"/>
<path style="fill:#181818; stroke:none;" d="M690 452L690 456L691 456L690 452z"/>
<path style="fill:transparent; stroke:none;" d="M692.333 452.667L692.667 453.333L692.333 452.667z"/>
<path style="fill:#181818; stroke:none;" d="M812 453L812 456L813 456L812 453M908 453L908 456L909 456L908 453z"/>
<path style="fill:#181818; stroke:none;" d="M909 453L909 457L910 457L909 453z"/>
<path style="fill:transparent; stroke:none;" d="M800 456L800 462L815 462L816 456L800 456z"/>
<path style="fill:#181818; stroke:none;" d="M783 457L783 461L784 461L783 457z"/>
<path style="fill:#181818; stroke:none;" d="M815 457L815 462L816 462L815 457z"/>
<path style="fill:#181818; stroke:none;" d="M616 463L680 463L680 468L681 468L681 463L685 463L685 458L634 458C627.632 458 618.637 455.827 616 463z"/>
<path style="fill:#181818; stroke:none;" d="M686 458L686 461L687 461L686 458M782 458L782 461L783 461L782 458M816 458L816 462L817 462L816 458z"/>
<path style="fill:transparent; stroke:none;" d="M914 459L913 463L914 459M818.333 460.667L818.667 461.333L818.333 460.667M685 462L686 463L685 462M778 462L779 463L778 462z"/>
<path style="fill:#181818; stroke:none;" d="M779 462L779 467L780 467L779 462M800 462L800 467L820 467L820 462L800 462z"/>
<path style="fill:transparent; stroke:none;" d="M820 462L821 463L820 462z"/>
<path style="fill:#181818; stroke:none;" d="M681 463L681 467L682 467L681 463z"/>
<path style="fill:transparent; stroke:none;" d="M683.333 463.667L683.667 464.333L683.333 463.667z"/>
<path style="fill:#181818; stroke:none;" d="M821 464L821 467L822 467L821 464M917.333 465.667L917.667 466.333L917.333 465.667z"/>
<path style="fill:#181818; stroke:none;" d="M918 465L918 468L919 468L918 465z"/>
<path style="fill:transparent; stroke:none;" d="M774 467L775 473L824 474L825 467L774 467z"/>
<path style="fill:#181818; stroke:none;" d="M774 468L774 473L775 473L774 468z"/>
<path style="fill:#181818; stroke:none;" d="M824 468L824 474L825 474L824 468z"/>
<path style="fill:transparent; stroke:none;" d="M675 469L677 474L675 469z"/>
<path style="fill:#181818; stroke:none;" d="M677 469L677 472L678 472L677 469M773 469L773 473L774 473L773 469M825 469L825 474L826 474L825 469z"/>
<path style="fill:transparent; stroke:none;" d="M827 471L827 474L828 474L827 471M923 471L923 474L924 474L923 471z"/>
<path style="fill:#181818; stroke:none;" d="M926 471L926 478L980 477L980 471L926 471z"/>
<path style="fill:transparent; stroke:none;" d="M769 473L770 474L769 473z"/>
<path style="fill:#181818; stroke:none;" d="M770 473L770 479L800 479L800 473L770 473z"/>
<path style="fill:transparent; stroke:none;" d="M829 473L830 474L829 473z"/>
<path style="fill:#181818; stroke:none;" d="M830 475L830 480L800 480L800 487L835 487L835 479L831 480L830 475z"/>
<path style="fill:#181818; stroke:none;" d="M671 476L671 479L672 479L671 476z"/>
<path style="fill:#181818; stroke:none;" d="M672.333 476.667L672.667 477.333L672.333 476.667z"/>
<path style="fill:transparent; stroke:none;" d="M673 477L674 478L673 477M927.333 477.667L927.667 478.333L927.333 477.667M765 478L766 479L765 478M833.333 478.667L833.667 479.333L833.333 478.667z"/>
<path style="fill:#181818; stroke:none;" d="M765 479L765 485L800 485L800 479L765 479z"/>
<path style="fill:#181818; stroke:none;" d="M764 480L764 485L765 485L764 480M605 488L659 488L659 493L660 493L660 488L664 489L664 481L623 481C614.782 481 608.623 479.46 605 488z"/>
<path style="fill:transparent; stroke:none;" d="M665 481L665 486L668 481L665 481z"/>
<path style="fill:#181818; stroke:none;" d="M668.333 481.667L668.667 482.333L668.333 481.667z"/>
<path style="fill:transparent; stroke:none;" d="M836 482C836.064 484.993 835.946 486.346 839 487L836 482z"/>
<path style="fill:#181818; stroke:none;" d="M935 483L935 488L936 488L935 483z"/>
<path style="fill:#181818; stroke:none;" d="M936 483L936 489L980 489L980 483L936 483z"/>
<path style="fill:#181818; stroke:none;" d="M839.333 485.667L839.667 486.333L839.333 485.667z"/>
<path style="fill:transparent; stroke:none;" d="M662.333 488.667L662.667 489.333L662.333 488.667M756.333 489.667L756.667 490.333L756.333 489.667z"/>
<path style="fill:#181818; stroke:none;" d="M842 489L842 492L843 492L842 489z"/>
<path style="fill:transparent; stroke:none;" d="M936 489L937 490L936 489z"/>
<path style="fill:#181818; stroke:none;" d="M941 489L941 495L980 495L980 489L941 489z"/>
<path style="fill:#181818; stroke:none;" d="M755 490L755 497L800 497L800 491L755 490M843.333 490.667L843.667 491.333L843.333 490.667z"/>
<path style="fill:transparent; stroke:none;" d="M844 490L845 491L844 490M600 501L654 501L653 494L616 494C608.659 494 602.471 492.78 600 501z"/>
<path style="fill:#181818; stroke:none;" d="M653 494L653 500L654 500L653 494z"/>
<path style="fill:#181818; stroke:none;" d="M654 494L654 499L655 499L654 494z"/>
<path style="fill:transparent; stroke:none;" d="M656 494L656 497L657 497L656 494M658 494L659 495L658 494M752 494L752 497L753 497L752 494M846 494L846 499L847 499L848 494L846 494M940 494L941 495L940 494z"/>
<path style="fill:#181818; stroke:none;" d="M944 495L944 499L945 499L944 495z"/>
<path style="fill:#181818; stroke:none;" d="M945 495L945 500L946 500L945 495z"/>
<path style="fill:transparent; stroke:none;" d="M946 495L945 501L980 501L980 495L946 495z"/>
<path style="fill:#181818; stroke:none;" d="M848 496L848 499L849 499L848 496z"/>
<path style="fill:#181818; stroke:none;" d="M747 500L747 503L748 503L747 500M851 500L851 505L800 505L800 510L856 510L856 505L852 505L851 500M598 506L649 506L649 501L612 501C606.258 501 600.313 499.709 598 506z"/>
<path style="fill:#181818; stroke:none;" d="M650 501L650 504L651 504L650 501M746.333 501.667L746.667 502.333L746.333 501.667M852 501L852 505L853 505L852 501z"/>
<path style="fill:#181818; stroke:none;" d="M950 501L950 506L951 506L950 501z"/>
<path style="fill:transparent; stroke:none;" d="M854.333 503.667L854.667 504.333L854.333 503.667M649 505L650 506L649 505M742 505L743 509L744 509L742 505M856 505L857 506L856 505M949 505L950 506L949 505M595 512L645 512L644 506L610 506C603.236 506 598.135 505.103 595 512z"/>
<path style="fill:#181818; stroke:none;" d="M644 506L644 511L645 511L644 506z"/>
<path style="fill:#181818; stroke:none;" d="M645 506L645 510L646 510L645 506z"/>
<path style="fill:transparent; stroke:none;" d="M647.333 506.667L647.667 507.333L647.333 506.667z"/>
<path style="fill:#181818; stroke:none;" d="M857 507L857 510L858 510L857 507M953 507L953 510L954 510L953 507z"/>
<path style="fill:#181818; stroke:none;" d="M954 507L954 511L955 511L954 507z"/>
<path style="fill:transparent; stroke:none;" d="M800 510L800 516L860 516L861 510L800 510z"/>
<path style="fill:#181818; stroke:none;" d="M738 511L738 515L739 515L738 511z"/>
<path style="fill:#181818; stroke:none;" d="M860 511L860 516L861 516L860 511z"/>
<path style="fill:#181818; stroke:none;" d="M593 517L635 517L635 522L636 522L636 517L640 517L640 512L607 512C600.983 512 595.904 510.897 593 517z"/>
<path style="fill:#181818; stroke:none;" d="M641 512L641 515L642 515L641 512M737 512L737 515L738 515L737 512M861 512L861 516L862 516L861 512z"/>
<path style="fill:transparent; stroke:none;" d="M959 513L958 517L959 513M863.333 514.667L863.667 515.333L863.333 514.667M640 516L641 517L640 516M733 516L734 517L733 516z"/>
<path style="fill:#181818; stroke:none;" d="M734 516L734 521L735 521L734 516M800 516L800 521L865 521L865 516L800 516z"/>
<path style="fill:transparent; stroke:none;" d="M865 516L866 517L865 516z"/>
<path style="fill:#181818; stroke:none;" d="M636 517L636 521L637 521L636 517z"/>
<path style="fill:transparent; stroke:none;" d="M638.333 517.667L638.667 518.333L638.333 517.667z"/>
<path style="fill:#181818; stroke:none;" d="M866 518L866 521L867 521L866 518M962.333 519.667L962.667 520.333L962.333 519.667z"/>
<path style="fill:#181818; stroke:none;" d="M963 519L963 522L964 522L963 519z"/>
<path style="fill:transparent; stroke:none;" d="M729 521L730 527L869 528L870 521L729 521z"/>
<path style="fill:#181818; stroke:none;" d="M729 522L729 527L730 527L729 522z"/>
<path style="fill:#181818; stroke:none;" d="M869 522L869 528L870 528L869 522z"/>
<path style="fill:transparent; stroke:none;" d="M630 523L632 528L630 523z"/>
<path style="fill:#181818; stroke:none;" d="M632 523L632 526L633 526L632 523M728 523L728 527L729 527L728 523M870 523L870 528L871 528L870 523z"/>
<path style="fill:transparent; stroke:none;" d="M872 525L872 528L873 528L872 525M968 525L968 528L969 528L968 525z"/>
<path style="fill:#181818; stroke:none;" d="M971 525L971 531L980 531L980 525L971 525z"/>
<path style="fill:transparent; stroke:none;" d="M724 527L725 528L724 527z"/>
<path style="fill:#181818; stroke:none;" d="M725 527L725 533L800 533L800 527L725 527z"/>
<path style="fill:transparent; stroke:none;" d="M874 527L875 528L874 527z"/>
<path style="fill:#181818; stroke:none;" d="M875 529L875 534L800 534L800 539L720 539L720 534L719 534L719 539L715 539L715 545L710 544L710 551L800 551L800 541L880 541L880 533L876 534L875 529z"/>
<path style="fill:#181818; stroke:none;" d="M627.333 530.667L627.667 531.333L627.333 530.667z"/>
<path style="fill:transparent; stroke:none;" d="M971 531L972 532L971 531M720 532L721 533L720 532M878.333 532.667L878.667 533.333L878.333 532.667M0.666667 533.333L1.33333 533.667L0.666667 533.333z"/>
<path style="fill:#181818; stroke:none;" d="M720 533L720 539L800 539L800 533L720 533z"/>
<path style="fill:transparent; stroke:none;" d="M586 534L586 536L625 537C624.054 532.584 618.77 534 615 534L586 534M974 535L975 536L974 535z"/>
<path style="fill:#181818; stroke:none;" d="M975 535L980 539L980 535L975 535z"/>
<path style="fill:#181818; stroke:none;" d="M1.33333 536.667L1.66667 537.333L1.33333 536.667z"/>
<path style="fill:transparent; stroke:none;" d="M2 536L0 540L4 540L2 536z"/>
<path style="fill:#181818; stroke:none;" d="M585 539L623 539L623 536C614.967 536 589.531 532.01 585 539z"/>
<path style="fill:transparent; stroke:none;" d="M881 536C881.064 538.993 880.946 540.346 884 541L881 536M716.333 537.667L716.667 538.333L716.333 537.667M585 539L585 540L623 541L612 539L585 539z"/>
<path style="fill:#181818; stroke:none;" d="M884.333 539.667L884.667 540.333L884.333 539.667z"/>
<path style="fill:transparent; stroke:none;" d="M976 539L977 540L976 539z"/>
<path style="fill:#181818; stroke:none;" d="M977 539L977 541L980 541L980 539L977 539z"/>
<path style="fill:transparent; stroke:none;" d="M0 542L0 544L5 544L5 542L0 542M584 542L584 544L622 544C614.289 538.158 593.601 542 584 542z"/>
<path style="fill:#181818; stroke:none;" d="M621 542L622 543L621 542z"/>
<path style="fill:transparent; stroke:none;" d="M976 542L977 543L976 542z"/>
<path style="fill:#181818; stroke:none;" d="M978.333 542.667L978.667 543.333L978.333 542.667z"/>
<path style="fill:transparent; stroke:none;" d="M979 542L979 547L980 547L979 542M711.333 543.667L711.667 544.333L711.333 543.667z"/>
<path style="fill:#181818; stroke:none;" d="M887 543L887 546L888 546L887 543z"/>
<path style="fill:#181818; stroke:none;" d="M888.333 544.667L888.667 545.333L888.333 544.667z"/>
<path style="fill:transparent; stroke:none;" d="M889 544L890 545L889 544M620 546L621 547L620 546M7 547L7 778L8 778L8 615L8 568L7 547z"/>
<path style="fill:#181818; stroke:none;" d="M8 548L8 778L9 778L9 616L9 569L8 548z"/>
<path style="fill:transparent; stroke:none;" d="M707 548L707 551L708 551L707 548M891 548L891 553L892 553L893 548L891 548z"/>
<path style="fill:#181818; stroke:none;" d="M893 550L893 553L894 553L893 550z"/>
<path style="fill:transparent; stroke:none;" d="M12 552L12 778L13 778L13 619L13 573L12 552z"/>
<path style="fill:#181818; stroke:none;" d="M13 553L13 778L14 778L14 620L14 574L13 553M702 554L702 557L703 557L702 554M896 554L896 559L800 559L800 564L901 564L901 559L897 559L896 554z"/>
<path style="fill:#181818; stroke:none;" d="M701.333 555.667L701.667 556.333L701.333 555.667M897 555L897 559L898 559L897 555z"/>
<path style="fill:#181818; stroke:none;" d="M19 557L19 778L20 778L20 622L20 578L19 557z"/>
<path style="fill:transparent; stroke:none;" d="M21 558L21 778L24 778L24 628L24 582L23 558L21 558M697 559L698 560L697 559z"/>
<path style="fill:#181818; stroke:none;" d="M698 559L698 563L699 563L698 559z"/>
<path style="fill:transparent; stroke:none;" d="M901 559L902 560L901 559z"/>
<path style="fill:#181818; stroke:none;" d="M252 561L252 778L254 778L254 619L254 578L252 561z"/>
<path style="fill:transparent; stroke:none;" d="M253 561L254 562L253 561z"/>
<path style="fill:#181818; stroke:none;" d="M902 561L902 564L903 564L902 561z"/>
<path style="fill:transparent; stroke:none;" d="M979.333 561.667L979.667 562.333L979.333 561.667M584 562L584 563L621 563C611.202 558.889 594.649 562 584 562M800 564L800 570L905 570L906 564L800 564M584 566C586.334 569.6 589.995 568.998 594 569C603.193 569.004 614.16 570.613 623 568L622 565L584 566z"/>
<path style="fill:#181818; stroke:none;" d="M693 565L693 570L689 570L689 575L910 575L910 570L694 570L693 565z"/>
<path style="fill:#181818; stroke:none;" d="M905 565L905 570L906 570L905 565z"/>
<path style="fill:transparent; stroke:none;" d="M691 566L692 567L691 566z"/>
<path style="fill:#181818; stroke:none;" d="M692 566L692 570L693 570L692 566M906 566L906 570L907 570L906 566z"/>
<path style="fill:transparent; stroke:none;" d="M260 567L261 568L260 567M976 568L976 569L980 567L976 568z"/>
<path style="fill:#181818; stroke:none;" d="M260 568L260 778L261 778L261 630L261 588L260 568z"/>
<path style="fill:#181818; stroke:none;" d="M622 568L623 569L622 568z"/>
<path style="fill:transparent; stroke:none;" d="M688 570L689 571L688 570M910 570L911 571L910 570z"/>
<path style="fill:#181818; stroke:none;" d="M585 571L585 572L624 573L624 571L585 571z"/>
<path style="fill:#181818; stroke:none;" d="M975 571L975 573L980 573L980 571L975 571z"/>
<path style="fill:transparent; stroke:none;" d="M624 572L586 573C592.866 601.905 614.586 628.586 626 656L627 656C627 630.983 622.21 600.321 628 576L624 572z"/>
<path style="fill:#181818; stroke:none;" d="M911 572L911 575L912 575L911 572z"/>
<path style="fill:#181818; stroke:none;" d="M267 574L267 778L268 778L268 635L268 594L267 574z"/>
<path style="fill:#181818; stroke:none;" d="M268 575L268 778L269 778L269 635L269 594L268 575z"/>
<path style="fill:transparent; stroke:none;" d="M684 575L685 622L685 714L770 714C776.342 714 794.64 710.886 799.258 715.603C804.451 720.908 801 740.849 801 748L547 748L547 750L800 750L800 778L914 778L914 642C914 620.948 910.124 595.48 915 575L684 575z"/>
<path style="fill:#181818; stroke:none;" d="M684 576L684 714L685 714L685 618C685 606.056 688.607 586.98 684 576z"/>
<path style="fill:#181818; stroke:none;" d="M914 576L914 778L915 778L915 636L915 595L914 576z"/>
<path style="fill:transparent; stroke:none;" d="M971 576C975.805 596.185 972 621.253 972 642L972 778L973 778L973 627L973 590L971 576z"/>
<path style="fill:#181818; stroke:none;" d="M627 577L627 658L628 658L628 602L627 577z"/>
<path style="fill:transparent; stroke:none;" d="M682 577C675.732 588.395 679 606.228 679 619L679 714L683 714L683 618C683 606.318 686.508 587.742 682 577z"/>
<path style="fill:#181818; stroke:none;" d="M683 577L683 714L684 714L684 618C684 606.318 687.508 587.742 683 577M915 577L915 778L916 778L916 637L916 596L915 577z"/>
<path style="fill:transparent; stroke:none;" d="M916 577L916 778L920 778L920 630L920 594C920 587.597 920.76 581.884 916 577z"/>
<path style="fill:#181818; stroke:none;" d="M971 577L971 778L972 778L972 637L972 596L971 577z"/>
<path style="fill:transparent; stroke:none;" d="M628 578L628 633C628 644.223 626.711 655.472 631 666L632 666L632 602C632 594.388 634.372 583.307 628 578M970 578C966.087 583.44 967 589.549 967 596L967 633L967 778L971 778L971 637L971 597L970 578z"/>
<path style="fill:#181818; stroke:none;" d="M275 581L275 778L276 778L276 640L276 600L275 581z"/>
<path style="fill:#181818; stroke:none;" d="M632 582L632 668L633 668L633 609L632 582z"/>
<path style="fill:transparent; stroke:none;" d="M633 582L633 670L634 670L634 609L633 582z"/>
<path style="fill:#181818; stroke:none;" d="M678 582L678 714L679 714L679 622C679 610.58 682.408 592.504 678 582M920 582L920 778L921 778L921 640L921 601L920 582z"/>
<path style="fill:transparent; stroke:none;" d="M921 582L921 778L922 778L922 640L922 601L921 582z"/>
<path style="fill:#181818; stroke:none;" d="M966 582L966 778L967 778L967 640L967 601L966 582z"/>
<path style="fill:transparent; stroke:none;" d="M277 583L277 778L279 778L279 635L279 599L277 583M637 585L637 650C637 661.729 635.225 672.906 642 683C644.802 676.322 643 666.216 643 659L643 607C643 599.338 645.957 587.75 637 585M672 585L673 628L673 712L674 712L674 617C674 609.968 677.362 589.686 672 585M925 585L925 778L931 778L931 631L931 599C931 592.559 932.134 587.19 925 585M960 585C964.665 604.594 961 628.862 961 649L961 778L962 778L962 634L962 598L960 585z"/>
<path style="fill:#181818; stroke:none;" d="M672 586L672 712L673 712L673 624C673 613.104 676.208 596.027 672 586M960 586L960 778L961 778L961 643L961 604L960 586z"/>
<path style="fill:transparent; stroke:none;" d="M282 587L282 778L283 778L283 644L283 605L282 587z"/>
<path style="fill:#181818; stroke:none;" d="M669 587L669 710L670 710L670 624C670 613.366 673.108 596.789 669 587M957 587L957 778L958 778L958 644L958 605L957 587M283 588L283 778L284 778L284 645L284 606L283 588z"/>
<path style="fill:transparent; stroke:none;" d="M668 588L668 710L669 710L669 625C669 614.366 672.108 597.789 668 588M956 588L956 778L957 778L957 645L957 606L956 588M290 594L290 778L292 778L292 643L292 609L290 594M293 597L293 778L294 778L294 651L294 615L293 597M297 600L298 601L297 600z"/>
<path style="fill:#181818; stroke:none;" d="M297 601L297 778L298 778L298 654L298 618L297 601z"/>
<path style="fill:#181818; stroke:none;" d="M298 601L298 778L299 778L299 654L299 618L298 601z"/>
<path style="fill:transparent; stroke:none;" d="M299 602L299 778L300 778L300 654L300 619L299 602z"/>
<path style="fill:#181818; stroke:none;" d="M304 607L304 778L305 778L305 658C305 643.7 309.506 620.121 304 607z"/>
<path style="fill:#181818; stroke:none;" d="M306 608L306 778L307 778L307 659C307 644.7 311.506 621.121 306 608z"/>
<path style="fill:transparent; stroke:none;" d="M309 611L309 778L310 778L310 661C310 646.962 314.406 623.883 309 611M312 614L312 778L315 778L315 667C315 650.782 318.593 629.538 314 614L312 614M316 617L316 778L317 778L317 665C317 651.485 321.206 629.407 316 617M321 621L321 778L322 778L322 668C322 654.747 326.107 633.17 321 621z"/>
<path style="fill:#181818; stroke:none;" d="M328 628L328 778L330 778L330 669C330 658.839 334.169 636.143 328 628z"/>
<path style="fill:#181818; stroke:none;" d="M336 635L336 778L337 778L337 678C337 665.794 340.707 646.218 336 635z"/>
<path style="fill:transparent; stroke:none;" d="M337 636L337 778L338 778L338 679C338 666.794 341.707 647.218 337 636z"/>
<path style="fill:#181818; stroke:none;" d="M343 641L343 778L344 778L344 682C344 670.318 347.507 651.742 343 641z"/>
<path style="fill:#181818; stroke:none;" d="M344 642L344 778L345 778L345 683C345 671.318 348.507 652.742 344 642z"/>
<path style="fill:transparent; stroke:none;" d="M345 643L345 778L346 778L346 684C346 672.318 349.507 653.742 345 643M352 648L353 649L352 648z"/>
<path style="fill:#181818; stroke:none;" d="M352 649L352 778L353 778L353 688C353 676.842 356.308 659.266 352 649z"/>
<path style="fill:transparent; stroke:none;" d="M355 652L355 778L356 778L356 690C356 679.104 359.208 662.028 355 652M358 654L358 778L359 778L359 692C359 681.104 362.208 664.028 358 654z"/>
<path style="fill:#181818; stroke:none;" d="M359 655L359 778L360 778L360 692C360 681.366 363.108 664.789 359 655z"/>
<path style="fill:transparent; stroke:none;" d="M360 656L360 778L361 778L361 693C361 682.366 364.108 665.789 360 656z"/>
<path style="fill:#181818; stroke:none;" d="M367 662L367 778L368 778L368 697L367 662z"/>
<path style="fill:transparent; stroke:none;" d="M369 664L369 778L371 778L371 695C371 686.784 374.047 670.662 369 664M374 668L374 778L376 778L376 698C376 689.98 378.933 674.512 374 668M377 671L377 778L378 778L378 704L377 671M382 675L382 778L383 778L383 706L382 675z"/>
<path style="fill:#181818; stroke:none;" d="M389 682L389 778L390 778L390 711L389 682z"/>
<path style="fill:transparent; stroke:none;" d="M390 682L390 778L391 778L391 711L390 682z"/>
<path style="fill:#181818; stroke:none;" d="M396 688L396 778L397 778L397 716L396 688z"/>
<path style="fill:#181818; stroke:none;" d="M397 689L397 778L398 778L398 716L397 689z"/>
<path style="fill:transparent; stroke:none;" d="M398 689L398 778L399 778L399 716L398 689z"/>
<path style="fill:#181818; stroke:none;" d="M404 695L404 778L405 778L405 721L404 695z"/>
<path style="fill:transparent; stroke:none;" d="M405 695L406 696L405 695z"/>
<path style="fill:#181818; stroke:none;" d="M405 696L405 778L406 778L406 721L405 696z"/>
<path style="fill:transparent; stroke:none;" d="M406 697L406 778L407 778L407 722L406 697M413 702L414 703L413 702z"/>
<path style="fill:#181818; stroke:none;" d="M413 703L413 778L414 778L414 726L413 703M420 709L420 778L421 778L421 731L420 709z"/>
<path style="fill:#181818; stroke:none;" d="M421 710L421 778L422 778L422 731L421 710M428 716L428 778L429 778L429 736L428 716z"/>
<path style="fill:transparent; stroke:none;" d="M430 718L430 778L432 778L432 736L430 718M435 722L435 778L436 778L436 740L435 722z"/>
<path style="fill:#181818; stroke:none;" d="M436 723L436 778L437 778L437 741L436 723z"/>
<path style="fill:transparent; stroke:none;" d="M443 729L443 778L445 778L445 744L443 729M446 732L446 778L447 778C447 764.997 451.01 743.939 446 732M450 735L451 736L450 735z"/>
<path style="fill:#181818; stroke:none;" d="M450 736L450 778L451 778C451 766.043 454.611 746.988 450 736z"/>
<path style="fill:#181818; stroke:none;" d="M451 736L451 778L452 778C452 766.043 455.611 746.988 451 736z"/>
<path style="fill:transparent; stroke:none;" d="M452 737L452 778L453 778C453 766.304 456.511 747.75 452 737z"/>
<path style="fill:#181818; stroke:none;" d="M457 742L457 778L458 778C458 767.613 461.011 751.56 457 742z"/>
<path style="fill:#181818; stroke:none;" d="M459 743L459 778L460 778L459 743z"/>
<path style="fill:transparent; stroke:none;" d="M465 749L465 778L468 778L467 749L465 749M469 752L469 778L470 778L469 752z"/>
<path style="fill:#181818; stroke:none;" d="M546 752L546 754L799 754L799 778L800 778L800 752L546 752z"/>
<path style="fill:transparent; stroke:none;" d="M544 755L544 756L798 756L798 778L799 778L799 754L624 754L571 754L544 755M474 756L474 778L475 778L474 756M543 757L544 758L543 757z"/>
<path style="fill:#181818; stroke:none;" d="M543 760L796 760L796 778L798 778L798 757L605 757L559 757C553.938 757 546.057 755.284 543 760z"/>
<path style="fill:transparent; stroke:none;" d="M478 760L478 778L479 778L478 760M542 760L542 762L795 762L795 778L796 778L796 760L542 760z"/>
<path style="fill:#181818; stroke:none;" d="M481 763L481 778L483 778L481 763z"/>
<path style="fill:transparent; stroke:none;" d="M482 763L483 764L482 763M540 763L540 778L541 778L540 763z"/>
<path style="fill:#181818; stroke:none;" d="M539 764L539 778L540 778L539 764z"/>
<path style="fill:transparent; stroke:none;" d="M536 767L535 778L537 778L536 767z"/>
<path style="fill:#181818; stroke:none;" d="M488 769L488 778L489 778L488 769z"/>
<path style="fill:transparent; stroke:none;" d="M489 769L489 778L490 778L489 769z"/>
<path style="fill:#181818; stroke:none;" d="M534 769L534 778L535 778L534 769M494 773L494 778L495 778L494 773z"/>
<path style="fill:transparent; stroke:none;" d="M496 773L499 778L496 773z"/>
<path style="fill:#181818; stroke:none;" d="M528 773L528 778L529 778L528 773M496 774L496 778L497 778L496 774z"/>
<path style="fill:transparent; stroke:none;" d="M525 774L524 778L525 774z"/>
</svg>
